<svg width="50" height="48" viewBox="0 0 50 48" fill="none" xmlns="http://www.w3.org/2000/svg">
<path d="M10.5184 44.3619L10.49 44.8319H8.89393V47.9976H41.1058V44.8319H39.5107L39.4813 44.3619L39.1982 39.7354H50.0002V20.9844L40.3478 12.8703H36.4783L35.8011 0.00244141H14.1985L13.5217 12.8703H9.65219L0 20.9844V39.7353H10.8014L10.5184 44.3619ZM16.4912 19.7254C16.545 19.4415 16.6076 19.16 16.6833 18.8827C16.7047 18.8053 16.7233 18.728 16.7457 18.6511H14.0601H13.2166H11.0755C10.6094 18.6511 10.2329 18.2738 10.2329 17.8084C10.2329 17.3435 10.6094 16.9659 11.0755 16.9659H13.3054H14.1489H14.9923L15.2078 12.8706L15.7971 1.68813H34.2014L34.7905 12.8706L35.0061 16.9659H35.8496H36.6931H38.9232C39.3889 16.9659 39.7657 17.3435 39.7657 17.8084C39.7657 18.2738 39.3889 18.6511 38.9232 18.6511H36.7818H35.9376H33.5725C33.5954 18.728 33.6152 18.8054 33.6358 18.8827C33.7106 19.16 33.7741 19.4415 33.8276 19.7254C33.905 20.1392 33.9659 20.5581 33.9963 20.9844C34.0169 21.2601 34.0275 21.5373 34.0275 21.8171C34.0275 22.1314 34.0103 22.4405 33.9855 22.7473C33.8752 24.0863 33.5295 25.3478 32.9963 26.481C32.5519 27.4241 31.9776 28.275 31.2994 29.0091C29.7045 30.739 27.5437 31.8087 25.1598 31.8087C22.7767 31.8087 20.6152 30.739 19.0199 29.0091C18.3426 28.275 17.7679 27.4241 17.3239 26.481C16.7902 25.347 16.445 24.0855 16.3342 22.7473C16.3091 22.4404 16.2922 22.1314 16.2922 21.8171C16.2922 21.5373 16.3033 21.26 16.3235 20.9844C16.3542 20.5588 16.4138 20.1392 16.4912 19.7254ZM7.20856 27.7995H4.66692V23.5708H7.20856V27.7995ZM36.6651 39.7353L36.9582 44.5158H13.0423L13.3349 39.7353H36.6651Z" fill="#131A22"/>
</svg>
